<svg xmlns="http://www.w3.org/2000/svg" width="11" height="19" viewBox="0 0 11 19">
  <defs>
    <style>
      .cls-1 {
        fill: #fff;
        fill-rule: evenodd;
      }
    </style>
  </defs>
  <path id="Back" class="cls-1" d="M125.258,457.105l-7.32-7.213a1.888,1.888,0,0,0-2.562-.361,1.822,1.822,0,0,0,.366,2.525l7.32,7.213a1.887,1.887,0,0,0,2.562.361A1.822,1.822,0,0,0,125.258,457.105Zm-2.2-15.374-7.32,7.213a1.822,1.822,0,0,0-.366,2.525,1.888,1.888,0,0,0,2.562-.361l7.32-7.213a1.822,1.822,0,0,0,.366-2.525A1.887,1.887,0,0,0,123.062,441.731Z" transform="translate(-115 -441)"/>
</svg>
